# xmcd
#
# Track frame offsets: 
#        150
#        13201
#        25884
#        39382
#        52103
#        65526
#        78154
#        91658
#        104576
#        117328
#        130525
#        143362
#        155865
#        166891
#        178666
#        190836
#        203491
#        216220
#        229268
#        242396
#
# Disc length: 3390 seconds
#
# Revision: 0
# Processed by: cddbd v1.5.2PL0 Copyright (c) Steve Scherf et al.
# Submitted via: ExactAudioCopyFreeDBPlugin 1.0
#
DISCID=070d3c14
DTITLE=Memphis Slim - The Blues 1940-1961 - CD1 - From Memphis To Chic
DTITLE=ago
DYEAR=2012
DGENRE=Blues
TTITLE0=Diggin' my potatoes (1940)
TTITLE1=The jive blues (1940)
TTITLE2=Last pair of shoes blues (1940)
TTITLE3=Blue evening blues (1940)
TTITLE4=Shelby county blues (1940)
TTITLE5=Rockin' the house (1946)
TTITLE6=Lend me your love (1946)
TTITLE7=Pacemaker boogie (1947)
TTITLE8=Nobody loves me (Everyday I have the blues) (1947)
TTITLE9=Angel child (1947)
TTITLE10=Midnight jump (1947)
TTITLE11=Slim's boogie n°2 (1950)
TTITLE12=Having fun (1950)
TTITLE13=Marack (1950)
TTITLE14=Reverend bounce (1950)
TTITLE15=Train is coming (1951)
TTITLE16=No mail blues (1951)
TTITLE17=You're gonna need my help someday (1951)
TTITLE18=Tia Juana (1951)
TTITLE19=Rocking the pad (1951)
EXTD=
EXTT0=
EXTT1=
EXTT2=
EXTT3=
EXTT4=
EXTT5=
EXTT6=
EXTT7=
EXTT8=
EXTT9=
EXTT10=
EXTT11=
EXTT12=
EXTT13=
EXTT14=
EXTT15=
EXTT16=
EXTT17=
EXTT18=
EXTT19=
PLAYORDER=
